<svg width="172" height="34" viewBox="0 0 172 34" fill="none" xmlns="http://www.w3.org/2000/svg">
<path d="M40.4263 32V6.84666H58.503V10.9167H45.193V17.6633H57.183V21.7333H45.193V32H40.4263Z" fill="white"/>
<path d="M62.3667 9.74333V5.49H66.8401V9.74333H62.3667ZM62.3667 32V12.7133H66.8401V32H62.3667Z" fill="white"/>
<path d="M71.605 32V12.7133H75.345L75.7117 15.28H75.9683C76.4083 14.6933 76.9217 14.18 77.5083 13.74C78.1195 13.2756 78.8039 12.9211 79.5617 12.6767C80.3439 12.4078 81.1995 12.2733 82.1283 12.2733C83.3506 12.2733 84.4261 12.4933 85.355 12.9333C86.3083 13.3733 87.0539 14.0822 87.5917 15.06C88.1295 16.0378 88.3983 17.3456 88.3983 18.9833V32H83.8883V19.79C83.8883 19.1056 83.8028 18.5433 83.6317 18.1033C83.485 17.6389 83.2528 17.2722 82.935 17.0033C82.6417 16.71 82.275 16.5022 81.835 16.38C81.395 16.2578 80.9061 16.1967 80.3683 16.1967C79.5617 16.1967 78.8283 16.3922 78.1683 16.7833C77.5328 17.1744 77.0195 17.7122 76.6283 18.3967C76.2617 19.0811 76.0783 19.8756 76.0783 20.78V32H71.605Z" fill="white"/>
<path d="M97.9678 32.44C97.43 32.44 96.8067 32.3667 96.0978 32.22C95.4133 32.0978 94.7411 31.8533 94.0811 31.4867C93.4455 31.12 92.92 30.5822 92.5044 29.8733C92.0889 29.14 91.8811 28.1867 91.8811 27.0133C91.8811 25.6933 92.1744 24.6056 92.7611 23.75C93.3478 22.87 94.1667 22.1856 95.2178 21.6967C96.2933 21.1833 97.5644 20.8289 99.0311 20.6333C100.522 20.4133 102.148 20.3033 103.908 20.3033V18.7267C103.908 18.1644 103.822 17.6633 103.651 17.2233C103.48 16.7833 103.162 16.4411 102.698 16.1967C102.258 15.9278 101.586 15.7933 100.681 15.7933C99.7767 15.7933 99.0678 15.9033 98.5544 16.1233C98.0411 16.3433 97.6867 16.6122 97.4911 16.93C97.2955 17.2478 97.1978 17.5778 97.1978 17.92V18.4333H92.8711C92.8467 18.3111 92.8344 18.1889 92.8344 18.0667C92.8344 17.9444 92.8344 17.7978 92.8344 17.6267C92.8344 16.5267 93.1644 15.5733 93.8244 14.7667C94.4844 13.96 95.4011 13.3489 96.5744 12.9333C97.7478 12.4933 99.1044 12.2733 100.644 12.2733C102.404 12.2733 103.847 12.5178 104.971 13.0067C106.12 13.4956 106.976 14.1922 107.538 15.0967C108.1 16.0011 108.381 17.1011 108.381 18.3967V27.49C108.381 27.9544 108.516 28.2844 108.784 28.48C109.053 28.6756 109.347 28.7733 109.664 28.7733H110.838V31.8533C110.593 31.9511 110.239 32.0611 109.774 32.1833C109.31 32.33 108.736 32.4033 108.051 32.4033C107.416 32.4033 106.841 32.2933 106.328 32.0733C105.839 31.8778 105.423 31.5844 105.081 31.1933C104.739 30.8022 104.494 30.3378 104.348 29.8H104.128C103.712 30.3133 103.211 30.7778 102.624 31.1933C102.062 31.5844 101.39 31.89 100.608 32.11C99.85 32.33 98.97 32.44 97.9678 32.44ZM99.3244 28.7733C100.058 28.7733 100.706 28.6633 101.268 28.4433C101.854 28.2233 102.331 27.9178 102.698 27.5267C103.089 27.1356 103.382 26.6589 103.578 26.0967C103.798 25.5344 103.908 24.9233 103.908 24.2633V23.3833C102.563 23.3833 101.317 23.4689 100.168 23.64C99.0433 23.8111 98.1389 24.1289 97.4544 24.5933C96.7944 25.0578 96.4644 25.7178 96.4644 26.5733C96.4644 27.0133 96.5622 27.4044 96.7578 27.7467C96.9778 28.0644 97.2955 28.3211 97.7111 28.5167C98.1511 28.6878 98.6889 28.7733 99.3244 28.7733Z" fill="white"/>
<path d="M113.392 32V12.7133H117.132L117.499 15.28H117.755C118.195 14.6933 118.709 14.18 119.295 13.74C119.907 13.2756 120.591 12.9211 121.349 12.6767C122.131 12.4078 122.987 12.2733 123.915 12.2733C125.138 12.2733 126.213 12.4933 127.142 12.9333C128.095 13.3733 128.841 14.0822 129.379 15.06C129.917 16.0378 130.185 17.3456 130.185 18.9833V32H125.675V19.79C125.675 19.1056 125.59 18.5433 125.419 18.1033C125.272 17.6389 125.04 17.2722 124.722 17.0033C124.429 16.71 124.062 16.5022 123.622 16.38C123.182 16.2578 122.693 16.1967 122.155 16.1967C121.349 16.1967 120.615 16.3922 119.955 16.7833C119.32 17.1744 118.807 17.7122 118.415 18.3967C118.049 19.0811 117.865 19.8756 117.865 20.78V32H113.392Z" fill="white"/>
<path d="M142.835 32.44C140.83 32.44 139.156 32.0856 137.812 31.3767C136.492 30.6433 135.502 29.5311 134.842 28.04C134.182 26.5489 133.852 24.6544 133.852 22.3567C133.852 20.0344 134.182 18.14 134.842 16.6733C135.526 15.1822 136.528 14.0822 137.848 13.3733C139.193 12.64 140.855 12.2733 142.835 12.2733C144.13 12.2733 145.279 12.4322 146.282 12.75C147.284 13.0678 148.139 13.5567 148.848 14.2167C149.582 14.8522 150.132 15.6467 150.498 16.6C150.865 17.5533 151.048 18.6656 151.048 19.9367H146.502C146.502 19.0322 146.367 18.2867 146.098 17.7C145.829 17.1133 145.414 16.6733 144.852 16.38C144.314 16.0622 143.617 15.9033 142.762 15.9033C141.759 15.9033 140.94 16.1356 140.305 16.6C139.669 17.0644 139.193 17.7611 138.875 18.69C138.582 19.5944 138.435 20.7433 138.435 22.1367V22.6133C138.435 23.9822 138.582 25.1311 138.875 26.06C139.193 26.9889 139.682 27.6856 140.342 28.15C141.002 28.59 141.869 28.81 142.945 28.81C143.776 28.81 144.46 28.6633 144.998 28.37C145.56 28.0522 145.988 27.5878 146.282 26.9767C146.575 26.3656 146.722 25.6322 146.722 24.7767H151.048C151.048 25.9744 150.865 27.05 150.498 28.0033C150.132 28.9567 149.594 29.7633 148.885 30.4233C148.176 31.0833 147.308 31.5844 146.282 31.9267C145.279 32.2689 144.13 32.44 142.835 32.44Z" fill="white"/>
<path d="M163.144 32.44C161.09 32.44 159.379 32.0856 158.01 31.3767C156.641 30.6433 155.615 29.5311 154.93 28.04C154.246 26.5489 153.904 24.6544 153.904 22.3567C153.904 20.0344 154.246 18.14 154.93 16.6733C155.615 15.1822 156.641 14.0822 158.01 13.3733C159.379 12.64 161.09 12.2733 163.144 12.2733C165.001 12.2733 166.554 12.6278 167.8 13.3367C169.071 14.0211 170.025 15.0844 170.66 16.5267C171.296 17.9689 171.614 19.8389 171.614 22.1367V23.4567H158.487C158.536 24.6544 158.719 25.6689 159.037 26.5C159.355 27.3067 159.844 27.9178 160.504 28.3333C161.188 28.7244 162.08 28.92 163.18 28.92C163.743 28.92 164.268 28.8467 164.757 28.7C165.246 28.5533 165.674 28.3333 166.04 28.04C166.407 27.7222 166.688 27.3311 166.884 26.8667C167.104 26.4022 167.214 25.8644 167.214 25.2533H171.614C171.614 26.4756 171.394 27.5389 170.954 28.4433C170.538 29.3478 169.939 30.0933 169.157 30.68C168.399 31.2667 167.507 31.7067 166.48 32C165.454 32.2933 164.341 32.44 163.144 32.44ZM158.56 20.3033H166.957C166.957 19.4967 166.859 18.8122 166.664 18.25C166.493 17.6878 166.236 17.2233 165.894 16.8567C165.576 16.49 165.185 16.2333 164.72 16.0867C164.256 15.9156 163.73 15.83 163.144 15.83C162.19 15.83 161.384 15.9889 160.724 16.3067C160.088 16.6244 159.599 17.1133 159.257 17.7733C158.915 18.4333 158.683 19.2767 158.56 20.3033Z" fill="white"/>
<path d="M12.882 3.25355C20.5376 1.99588 28.0477 6.7271 30.0981 14.3792C32.2818 22.5293 27.4452 30.9067 19.295 33.0906C11.1448 35.2743 2.76744 30.4377 0.583575 22.2876C-0.828139 17.019 0.693941 11.6554 4.14827 7.93143L4.48856 7.57622L6.65901 9.72764C3.70431 12.7141 2.36925 17.1458 3.535 21.4967C5.28213 28.0168 11.984 31.8861 18.5041 30.1391C25.0242 28.3921 28.8936 21.6901 27.1465 15.17C25.5709 9.28962 19.965 5.56531 14.0971 6.17273L13.6776 6.2235L14.2463 8.34574L7.35487 6.23811L12.2692 0.96714L12.882 3.25355ZM21.2472 11.1587L19.7195 13.8049L23.0272 15.7146L21.4994 18.3608L14.2224 14.1594C13.857 13.9484 13.3898 14.0737 13.1789 14.439C12.9914 14.7638 13.0695 15.1689 13.3458 15.4031L13.4585 15.4825L18.7509 18.538C20.5777 19.5927 21.2036 21.9287 20.1489 23.7555C19.0942 25.5823 16.7582 26.2082 14.9314 25.1535L13.6084 24.3896L12.0806 27.0358L9.43439 25.508L10.9622 22.8618L7.6544 20.9521L9.18218 18.3059L16.4592 22.5073C16.8245 22.7182 17.2918 22.593 17.5027 22.2277C17.6903 21.9029 17.6121 21.4977 17.3359 21.2636L17.2231 21.1842L11.9307 18.1287C10.1039 17.0739 9.478 14.738 10.5327 12.9112C11.5874 11.0844 13.9233 10.4585 15.7502 11.5132L17.0733 12.2771L18.6011 9.63089L21.2472 11.1587Z" fill="white"/>
</svg>
