<svg width="255" height="111" viewBox="0 0 255 111" fill="none" xmlns="http://www.w3.org/2000/svg">
<rect width="255" height="111" fill="white"/>
<path d="M82.4263 67V41.8467H100.503V45.9167H87.193V52.6633H99.183V56.7333H87.193V67H82.4263Z" fill="url(#paint0_linear_8_2)"/>
<path d="M104.367 44.7433V40.49H108.84V44.7433H104.367ZM104.367 67V47.7133H108.84V67H104.367Z" fill="url(#paint1_linear_8_2)"/>
<path d="M113.605 67V47.7133H117.345L117.712 50.28H117.968C118.408 49.6933 118.922 49.18 119.508 48.74C120.119 48.2756 120.804 47.9211 121.562 47.6767C122.344 47.4078 123.199 47.2733 124.128 47.2733C125.351 47.2733 126.426 47.4933 127.355 47.9333C128.308 48.3733 129.054 49.0822 129.592 50.06C130.129 51.0378 130.398 52.3456 130.398 53.9833V67H125.888V54.79C125.888 54.1056 125.803 53.5433 125.632 53.1033C125.485 52.6389 125.253 52.2722 124.935 52.0033C124.642 51.71 124.275 51.5022 123.835 51.38C123.395 51.2578 122.906 51.1967 122.368 51.1967C121.562 51.1967 120.828 51.3922 120.168 51.7833C119.533 52.1744 119.019 52.7122 118.628 53.3967C118.262 54.0811 118.078 54.8756 118.078 55.78V67H113.605Z" fill="url(#paint2_linear_8_2)"/>
<path d="M139.968 67.44C139.43 67.44 138.807 67.3667 138.098 67.22C137.413 67.0978 136.741 66.8533 136.081 66.4867C135.446 66.12 134.92 65.5822 134.504 64.8733C134.089 64.14 133.881 63.1867 133.881 62.0133C133.881 60.6933 134.174 59.6056 134.761 58.75C135.348 57.87 136.167 57.1856 137.218 56.6967C138.293 56.1833 139.564 55.8289 141.031 55.6333C142.522 55.4133 144.148 55.3033 145.908 55.3033V53.7267C145.908 53.1644 145.822 52.6633 145.651 52.2233C145.48 51.7833 145.162 51.4411 144.698 51.1967C144.258 50.9278 143.586 50.7933 142.681 50.7933C141.777 50.7933 141.068 50.9033 140.554 51.1233C140.041 51.3433 139.687 51.6122 139.491 51.93C139.296 52.2478 139.198 52.5778 139.198 52.92V53.4333H134.871C134.847 53.3111 134.834 53.1889 134.834 53.0667C134.834 52.9444 134.834 52.7978 134.834 52.6267C134.834 51.5267 135.164 50.5733 135.824 49.7667C136.484 48.96 137.401 48.3489 138.574 47.9333C139.748 47.4933 141.104 47.2733 142.644 47.2733C144.404 47.2733 145.847 47.5178 146.971 48.0067C148.12 48.4956 148.976 49.1922 149.538 50.0967C150.1 51.0011 150.381 52.1011 150.381 53.3967V62.49C150.381 62.9544 150.516 63.2844 150.784 63.48C151.053 63.6756 151.347 63.7733 151.664 63.7733H152.838V66.8533C152.593 66.9511 152.239 67.0611 151.774 67.1833C151.31 67.33 150.736 67.4033 150.051 67.4033C149.416 67.4033 148.841 67.2933 148.328 67.0733C147.839 66.8778 147.423 66.5844 147.081 66.1933C146.739 65.8022 146.494 65.3378 146.348 64.8H146.128C145.712 65.3133 145.211 65.7778 144.624 66.1933C144.062 66.5844 143.39 66.89 142.608 67.11C141.85 67.33 140.97 67.44 139.968 67.44ZM141.324 63.7733C142.058 63.7733 142.706 63.6633 143.268 63.4433C143.854 63.2233 144.331 62.9178 144.698 62.5267C145.089 62.1356 145.382 61.6589 145.578 61.0967C145.798 60.5344 145.908 59.9233 145.908 59.2633V58.3833C144.563 58.3833 143.317 58.4689 142.168 58.64C141.043 58.8111 140.139 59.1289 139.454 59.5933C138.794 60.0578 138.464 60.7178 138.464 61.5733C138.464 62.0133 138.562 62.4044 138.758 62.7467C138.978 63.0644 139.296 63.3211 139.711 63.5167C140.151 63.6878 140.689 63.7733 141.324 63.7733Z" fill="url(#paint3_linear_8_2)"/>
<path d="M155.392 67V47.7133H159.132L159.499 50.28H159.755C160.195 49.6933 160.709 49.18 161.295 48.74C161.907 48.2756 162.591 47.9211 163.349 47.6767C164.131 47.4078 164.987 47.2733 165.915 47.2733C167.138 47.2733 168.213 47.4933 169.142 47.9333C170.095 48.3733 170.841 49.0822 171.379 50.06C171.917 51.0378 172.185 52.3456 172.185 53.9833V67H167.675V54.79C167.675 54.1056 167.59 53.5433 167.419 53.1033C167.272 52.6389 167.04 52.2722 166.722 52.0033C166.429 51.71 166.062 51.5022 165.622 51.38C165.182 51.2578 164.693 51.1967 164.155 51.1967C163.349 51.1967 162.615 51.3922 161.955 51.7833C161.32 52.1744 160.807 52.7122 160.415 53.3967C160.049 54.0811 159.865 54.8756 159.865 55.78V67H155.392Z" fill="url(#paint4_linear_8_2)"/>
<path d="M184.835 67.44C182.83 67.44 181.156 67.0856 179.812 66.3767C178.492 65.6433 177.502 64.5311 176.842 63.04C176.182 61.5489 175.852 59.6544 175.852 57.3567C175.852 55.0344 176.182 53.14 176.842 51.6733C177.526 50.1822 178.528 49.0822 179.848 48.3733C181.193 47.64 182.855 47.2733 184.835 47.2733C186.13 47.2733 187.279 47.4322 188.282 47.75C189.284 48.0678 190.139 48.5567 190.848 49.2167C191.582 49.8522 192.132 50.6467 192.498 51.6C192.865 52.5533 193.048 53.6656 193.048 54.9367H188.502C188.502 54.0322 188.367 53.2867 188.098 52.7C187.829 52.1133 187.414 51.6733 186.852 51.38C186.314 51.0622 185.617 50.9033 184.762 50.9033C183.759 50.9033 182.94 51.1356 182.305 51.6C181.669 52.0644 181.193 52.7611 180.875 53.69C180.582 54.5944 180.435 55.7433 180.435 57.1367V57.6133C180.435 58.9822 180.582 60.1311 180.875 61.06C181.193 61.9889 181.682 62.6856 182.342 63.15C183.002 63.59 183.869 63.81 184.945 63.81C185.776 63.81 186.46 63.6633 186.998 63.37C187.56 63.0522 187.988 62.5878 188.282 61.9767C188.575 61.3656 188.722 60.6322 188.722 59.7767H193.048C193.048 60.9744 192.865 62.05 192.498 63.0033C192.132 63.9567 191.594 64.7633 190.885 65.4233C190.176 66.0833 189.308 66.5844 188.282 66.9267C187.279 67.2689 186.13 67.44 184.835 67.44Z" fill="url(#paint5_linear_8_2)"/>
<path d="M205.144 67.44C203.09 67.44 201.379 67.0856 200.01 66.3767C198.641 65.6433 197.615 64.5311 196.93 63.04C196.246 61.5489 195.904 59.6544 195.904 57.3567C195.904 55.0344 196.246 53.14 196.93 51.6733C197.615 50.1822 198.641 49.0822 200.01 48.3733C201.379 47.64 203.09 47.2733 205.144 47.2733C207.001 47.2733 208.554 47.6278 209.8 48.3367C211.071 49.0211 212.025 50.0844 212.66 51.5267C213.296 52.9689 213.614 54.8389 213.614 57.1367V58.4567H200.487C200.536 59.6544 200.719 60.6689 201.037 61.5C201.355 62.3067 201.844 62.9178 202.504 63.3333C203.188 63.7244 204.08 63.92 205.18 63.92C205.743 63.92 206.268 63.8467 206.757 63.7C207.246 63.5533 207.674 63.3333 208.04 63.04C208.407 62.7222 208.688 62.3311 208.884 61.8667C209.104 61.4022 209.214 60.8644 209.214 60.2533H213.614C213.614 61.4756 213.394 62.5389 212.954 63.4433C212.538 64.3478 211.939 65.0933 211.157 65.68C210.399 66.2667 209.507 66.7067 208.48 67C207.454 67.2933 206.341 67.44 205.144 67.44ZM200.56 55.3033H208.957C208.957 54.4967 208.859 53.8122 208.664 53.25C208.493 52.6878 208.236 52.2233 207.894 51.8567C207.576 51.49 207.185 51.2333 206.72 51.0867C206.256 50.9156 205.73 50.83 205.144 50.83C204.19 50.83 203.384 50.9889 202.724 51.3067C202.088 51.6244 201.599 52.1133 201.257 52.7733C200.915 53.4333 200.683 54.2767 200.56 55.3033Z" fill="url(#paint6_linear_8_2)"/>
<path d="M54.882 38.2535C62.5376 36.9959 70.0476 41.7271 72.0981 49.3792C74.2818 57.5293 69.4452 65.9067 61.295 68.0906C53.1448 70.2743 44.7674 65.4377 42.5836 57.2876C41.1719 52.019 42.6939 46.6554 46.1483 42.9314L46.4885 42.5762L48.659 44.7276C45.7043 47.7141 44.3692 52.1458 45.535 56.4967C47.2821 63.0168 53.984 66.8861 60.504 65.1391C67.0242 63.3921 70.8936 56.6901 69.1465 50.17C67.5709 44.2896 61.965 40.5653 56.0971 41.1727L55.6776 41.2235L56.2463 43.3457L49.3549 41.2381L54.2692 35.9671L54.882 38.2535ZM63.2472 46.1587L61.7195 48.8049L65.0272 50.7146L63.4994 53.3608L56.2224 49.1594C55.857 48.9484 55.3898 49.0737 55.1789 49.439C54.9913 49.7638 55.0695 50.1689 55.3458 50.4031L55.4585 50.4825L60.7509 53.538C62.5777 54.5927 63.2036 56.9287 62.1489 58.7555C61.0942 60.5823 58.7582 61.2082 56.9314 60.1535L55.6083 59.3896L54.0806 62.0358L51.4344 60.508L52.9622 57.8618L49.6544 55.9521L51.1822 53.3059L58.4592 57.5073C58.8245 57.7182 59.2918 57.593 59.5027 57.2277C59.6902 56.9029 59.6121 56.4977 59.3359 56.2636L59.2231 56.1842L53.9307 53.1287C52.1039 52.0739 51.478 49.738 52.5327 47.9112C53.5874 46.0844 55.9233 45.4585 57.7502 46.5132L59.0733 47.2771L60.601 44.6309L63.2472 46.1587Z" fill="#20C97C"/>
<defs>
<linearGradient id="paint0_linear_8_2" x1="20.4347" y1="62.0854" x2="223.465" y2="37.7782" gradientUnits="userSpaceOnUse">
<stop stop-color="#20C973"/>
<stop offset="1" stop-color="#20C9B3"/>
</linearGradient>
<linearGradient id="paint1_linear_8_2" x1="20.4347" y1="62.0854" x2="223.465" y2="37.7782" gradientUnits="userSpaceOnUse">
<stop stop-color="#20C973"/>
<stop offset="1" stop-color="#20C9B3"/>
</linearGradient>
<linearGradient id="paint2_linear_8_2" x1="20.4347" y1="62.0854" x2="223.465" y2="37.7782" gradientUnits="userSpaceOnUse">
<stop stop-color="#20C973"/>
<stop offset="1" stop-color="#20C9B3"/>
</linearGradient>
<linearGradient id="paint3_linear_8_2" x1="20.4347" y1="62.0854" x2="223.465" y2="37.7782" gradientUnits="userSpaceOnUse">
<stop stop-color="#20C973"/>
<stop offset="1" stop-color="#20C9B3"/>
</linearGradient>
<linearGradient id="paint4_linear_8_2" x1="20.4347" y1="62.0854" x2="223.465" y2="37.7782" gradientUnits="userSpaceOnUse">
<stop stop-color="#20C973"/>
<stop offset="1" stop-color="#20C9B3"/>
</linearGradient>
<linearGradient id="paint5_linear_8_2" x1="20.4347" y1="62.0854" x2="223.465" y2="37.7782" gradientUnits="userSpaceOnUse">
<stop stop-color="#20C973"/>
<stop offset="1" stop-color="#20C9B3"/>
</linearGradient>
<linearGradient id="paint6_linear_8_2" x1="20.4347" y1="62.0854" x2="223.465" y2="37.7782" gradientUnits="userSpaceOnUse">
<stop stop-color="#20C973"/>
<stop offset="1" stop-color="#20C9B3"/>
</linearGradient>
</defs>
</svg>
